<mxfile host="app.diagrams.net" modified="2023-04-27T08:19:48.763Z" agent="Mozilla/5.0 (Macintosh; Intel Mac OS X 10.15; rv:109.0) Gecko/20100101 Firefox/111.0" etag="O8aeiNJWL1gpEdkPchKw" version="21.2.3" type="github">
  <diagram name="Page-1" id="42789a77-a242-8287-6e28-9cd8cfd52e62">
    <mxGraphModel dx="954" dy="614" grid="1" gridSize="10" guides="1" tooltips="1" connect="1" arrows="1" fold="1" page="1" pageScale="1" pageWidth="1100" pageHeight="850" background="none" math="0" shadow="0">
      <root>
        <mxCell id="0" />
        <mxCell id="1" parent="0" />
        <mxCell id="IwPnEcYbfyrzfM7aUq2T-20" value="&lt;font style=&quot;font-size: 30px;&quot;&gt;12&lt;/font&gt;" style="orthogonalLoop=1;jettySize=auto;html=1;shape=link;fontSize=30;" edge="1" parent="1" source="IwPnEcYbfyrzfM7aUq2T-10" target="IwPnEcYbfyrzfM7aUq2T-11">
          <mxGeometry relative="1" as="geometry">
            <mxPoint as="offset" />
          </mxGeometry>
        </mxCell>
        <mxCell id="IwPnEcYbfyrzfM7aUq2T-29" value="16" style="shape=link;rounded=1;orthogonalLoop=1;jettySize=auto;html=1;labelBackgroundColor=default;strokeColor=default;fontFamily=Helvetica;fontSize=30;fontColor=default;endArrow=classic;" edge="1" parent="1" source="IwPnEcYbfyrzfM7aUq2T-10" target="IwPnEcYbfyrzfM7aUq2T-15">
          <mxGeometry relative="1" as="geometry" />
        </mxCell>
        <mxCell id="IwPnEcYbfyrzfM7aUq2T-30" style="shape=link;rounded=1;orthogonalLoop=1;jettySize=auto;html=1;labelBackgroundColor=default;strokeColor=default;fontFamily=Helvetica;fontSize=30;fontColor=default;endArrow=classic;" edge="1" parent="1" source="IwPnEcYbfyrzfM7aUq2T-10" target="IwPnEcYbfyrzfM7aUq2T-16">
          <mxGeometry relative="1" as="geometry" />
        </mxCell>
        <mxCell id="IwPnEcYbfyrzfM7aUq2T-31" value="14" style="edgeLabel;html=1;align=center;verticalAlign=middle;resizable=0;points=[];fontSize=30;fontFamily=Helvetica;fontColor=default;" vertex="1" connectable="0" parent="IwPnEcYbfyrzfM7aUq2T-30">
          <mxGeometry x="0.1566" relative="1" as="geometry">
            <mxPoint as="offset" />
          </mxGeometry>
        </mxCell>
        <mxCell id="IwPnEcYbfyrzfM7aUq2T-10" value="&lt;font style=&quot;font-size: 30px;&quot;&gt;A&lt;/font&gt;" style="ellipse;whiteSpace=wrap;html=1;aspect=fixed;fontSize=30;rounded=1;" vertex="1" parent="1">
          <mxGeometry x="90" y="20" width="80" height="80" as="geometry" />
        </mxCell>
        <mxCell id="IwPnEcYbfyrzfM7aUq2T-32" style="shape=link;rounded=1;orthogonalLoop=1;jettySize=auto;html=1;labelBackgroundColor=default;strokeColor=default;fontFamily=Helvetica;fontSize=30;fontColor=default;endArrow=classic;" edge="1" parent="1" source="IwPnEcYbfyrzfM7aUq2T-11" target="IwPnEcYbfyrzfM7aUq2T-12">
          <mxGeometry relative="1" as="geometry" />
        </mxCell>
        <mxCell id="IwPnEcYbfyrzfM7aUq2T-33" value="10" style="edgeLabel;html=1;align=center;verticalAlign=middle;resizable=0;points=[];fontSize=30;fontFamily=Helvetica;fontColor=default;" vertex="1" connectable="0" parent="IwPnEcYbfyrzfM7aUq2T-32">
          <mxGeometry x="0.0315" y="-1" relative="1" as="geometry">
            <mxPoint as="offset" />
          </mxGeometry>
        </mxCell>
        <mxCell id="IwPnEcYbfyrzfM7aUq2T-34" style="shape=link;rounded=1;orthogonalLoop=1;jettySize=auto;html=1;labelBackgroundColor=default;strokeColor=default;fontFamily=Helvetica;fontSize=30;fontColor=default;endArrow=classic;" edge="1" parent="1" source="IwPnEcYbfyrzfM7aUq2T-11" target="IwPnEcYbfyrzfM7aUq2T-15">
          <mxGeometry relative="1" as="geometry" />
        </mxCell>
        <mxCell id="IwPnEcYbfyrzfM7aUq2T-35" value="7" style="edgeLabel;html=1;align=center;verticalAlign=middle;resizable=0;points=[];fontSize=30;fontFamily=Helvetica;fontColor=default;" vertex="1" connectable="0" parent="IwPnEcYbfyrzfM7aUq2T-34">
          <mxGeometry x="0.098" y="-5" relative="1" as="geometry">
            <mxPoint as="offset" />
          </mxGeometry>
        </mxCell>
        <mxCell id="IwPnEcYbfyrzfM7aUq2T-11" value="B" style="ellipse;whiteSpace=wrap;html=1;aspect=fixed;fontSize=30;rounded=1;" vertex="1" parent="1">
          <mxGeometry x="90" y="300" width="80" height="80" as="geometry" />
        </mxCell>
        <mxCell id="IwPnEcYbfyrzfM7aUq2T-36" value="3" style="shape=link;rounded=1;orthogonalLoop=1;jettySize=auto;html=1;labelBackgroundColor=default;strokeColor=default;fontFamily=Helvetica;fontSize=30;fontColor=default;endArrow=classic;" edge="1" parent="1" source="IwPnEcYbfyrzfM7aUq2T-12" target="IwPnEcYbfyrzfM7aUq2T-13">
          <mxGeometry relative="1" as="geometry" />
        </mxCell>
        <mxCell id="IwPnEcYbfyrzfM7aUq2T-37" style="rounded=1;orthogonalLoop=1;jettySize=auto;html=1;labelBackgroundColor=default;strokeColor=default;fontFamily=Helvetica;fontSize=30;fontColor=default;endArrow=classic;shape=link;" edge="1" parent="1" source="IwPnEcYbfyrzfM7aUq2T-12" target="IwPnEcYbfyrzfM7aUq2T-14">
          <mxGeometry relative="1" as="geometry" />
        </mxCell>
        <mxCell id="IwPnEcYbfyrzfM7aUq2T-38" value="5" style="edgeLabel;html=1;align=center;verticalAlign=middle;resizable=0;points=[];fontSize=30;fontFamily=Helvetica;fontColor=default;" vertex="1" connectable="0" parent="IwPnEcYbfyrzfM7aUq2T-37">
          <mxGeometry x="0.0517" y="-3" relative="1" as="geometry">
            <mxPoint as="offset" />
          </mxGeometry>
        </mxCell>
        <mxCell id="IwPnEcYbfyrzfM7aUq2T-39" style="shape=link;rounded=1;orthogonalLoop=1;jettySize=auto;html=1;labelBackgroundColor=default;strokeColor=default;fontFamily=Helvetica;fontSize=30;fontColor=default;endArrow=classic;" edge="1" parent="1" source="IwPnEcYbfyrzfM7aUq2T-12" target="IwPnEcYbfyrzfM7aUq2T-15">
          <mxGeometry relative="1" as="geometry" />
        </mxCell>
        <mxCell id="IwPnEcYbfyrzfM7aUq2T-40" value="6" style="edgeLabel;html=1;align=center;verticalAlign=middle;resizable=0;points=[];fontSize=30;fontFamily=Helvetica;fontColor=default;" vertex="1" connectable="0" parent="IwPnEcYbfyrzfM7aUq2T-39">
          <mxGeometry x="0.0244" y="-2" relative="1" as="geometry">
            <mxPoint as="offset" />
          </mxGeometry>
        </mxCell>
        <mxCell id="IwPnEcYbfyrzfM7aUq2T-12" value="C" style="ellipse;whiteSpace=wrap;html=1;aspect=fixed;fontSize=30;rounded=1;" vertex="1" parent="1">
          <mxGeometry x="90" y="610" width="80" height="80" as="geometry" />
        </mxCell>
        <mxCell id="IwPnEcYbfyrzfM7aUq2T-41" style="shape=link;rounded=1;orthogonalLoop=1;jettySize=auto;html=1;labelBackgroundColor=default;strokeColor=default;fontFamily=Helvetica;fontSize=30;fontColor=default;endArrow=classic;" edge="1" parent="1" source="IwPnEcYbfyrzfM7aUq2T-13" target="IwPnEcYbfyrzfM7aUq2T-14">
          <mxGeometry relative="1" as="geometry" />
        </mxCell>
        <mxCell id="IwPnEcYbfyrzfM7aUq2T-42" value="4" style="edgeLabel;html=1;align=center;verticalAlign=middle;resizable=0;points=[];fontSize=30;fontFamily=Helvetica;fontColor=default;" vertex="1" connectable="0" parent="IwPnEcYbfyrzfM7aUq2T-41">
          <mxGeometry x="-0.0437" y="-6" relative="1" as="geometry">
            <mxPoint as="offset" />
          </mxGeometry>
        </mxCell>
        <mxCell id="IwPnEcYbfyrzfM7aUq2T-13" value="D" style="ellipse;whiteSpace=wrap;html=1;aspect=fixed;fontSize=30;rounded=1;" vertex="1" parent="1">
          <mxGeometry x="500" y="610" width="80" height="80" as="geometry" />
        </mxCell>
        <mxCell id="IwPnEcYbfyrzfM7aUq2T-43" style="shape=link;rounded=1;orthogonalLoop=1;jettySize=auto;html=1;entryX=1;entryY=0.5;entryDx=0;entryDy=0;labelBackgroundColor=default;strokeColor=default;fontFamily=Helvetica;fontSize=30;fontColor=default;endArrow=classic;" edge="1" parent="1" source="IwPnEcYbfyrzfM7aUq2T-14" target="IwPnEcYbfyrzfM7aUq2T-15">
          <mxGeometry relative="1" as="geometry" />
        </mxCell>
        <mxCell id="IwPnEcYbfyrzfM7aUq2T-44" value="2" style="edgeLabel;html=1;align=center;verticalAlign=middle;resizable=0;points=[];fontSize=30;fontFamily=Helvetica;fontColor=default;" vertex="1" connectable="0" parent="IwPnEcYbfyrzfM7aUq2T-43">
          <mxGeometry x="-0.0759" y="-4" relative="1" as="geometry">
            <mxPoint as="offset" />
          </mxGeometry>
        </mxCell>
        <mxCell id="IwPnEcYbfyrzfM7aUq2T-45" style="shape=link;rounded=1;orthogonalLoop=1;jettySize=auto;html=1;labelBackgroundColor=default;strokeColor=default;fontFamily=Helvetica;fontSize=30;fontColor=default;endArrow=classic;" edge="1" parent="1" source="IwPnEcYbfyrzfM7aUq2T-14" target="IwPnEcYbfyrzfM7aUq2T-16">
          <mxGeometry relative="1" as="geometry" />
        </mxCell>
        <mxCell id="IwPnEcYbfyrzfM7aUq2T-46" value="8" style="edgeLabel;html=1;align=center;verticalAlign=middle;resizable=0;points=[];fontSize=30;fontFamily=Helvetica;fontColor=default;" vertex="1" connectable="0" parent="IwPnEcYbfyrzfM7aUq2T-45">
          <mxGeometry x="-0.3417" y="2" relative="1" as="geometry">
            <mxPoint y="-1" as="offset" />
          </mxGeometry>
        </mxCell>
        <mxCell id="IwPnEcYbfyrzfM7aUq2T-14" value="E" style="ellipse;whiteSpace=wrap;html=1;aspect=fixed;fontSize=30;rounded=1;" vertex="1" parent="1">
          <mxGeometry x="500" y="300" width="80" height="80" as="geometry" />
        </mxCell>
        <mxCell id="IwPnEcYbfyrzfM7aUq2T-15" value="F" style="ellipse;whiteSpace=wrap;html=1;aspect=fixed;fontSize=30;rounded=1;" vertex="1" parent="1">
          <mxGeometry x="300" y="300" width="80" height="80" as="geometry" />
        </mxCell>
        <mxCell id="IwPnEcYbfyrzfM7aUq2T-48" style="shape=link;rounded=1;orthogonalLoop=1;jettySize=auto;html=1;labelBackgroundColor=default;strokeColor=default;fontFamily=Helvetica;fontSize=30;fontColor=default;endArrow=classic;" edge="1" parent="1" source="IwPnEcYbfyrzfM7aUq2T-16" target="IwPnEcYbfyrzfM7aUq2T-15">
          <mxGeometry relative="1" as="geometry" />
        </mxCell>
        <mxCell id="IwPnEcYbfyrzfM7aUq2T-49" value="9" style="edgeLabel;html=1;align=center;verticalAlign=middle;resizable=0;points=[];fontSize=30;fontFamily=Helvetica;fontColor=default;" vertex="1" connectable="0" parent="IwPnEcYbfyrzfM7aUq2T-48">
          <mxGeometry x="0.2371" y="5" relative="1" as="geometry">
            <mxPoint as="offset" />
          </mxGeometry>
        </mxCell>
        <mxCell id="IwPnEcYbfyrzfM7aUq2T-16" value="G" style="ellipse;whiteSpace=wrap;html=1;aspect=fixed;fontSize=30;rounded=1;" vertex="1" parent="1">
          <mxGeometry x="500" y="20" width="80" height="80" as="geometry" />
        </mxCell>
      </root>
    </mxGraphModel>
  </diagram>
</mxfile>
